<mxfile host="app.diagrams.net" modified="2022-05-07T21:19:09.153Z" agent="5.0 (Windows NT 10.0; Win64; x64) AppleWebKit/537.36 (KHTML, like Gecko) Chrome/100.0.4896.127 Safari/537.36" etag="vnc9YeZzRTtIOfCKX1Vd" version="18.0.1" type="github">
  <diagram id="C5RBs43oDa-KdzZeNtuy" name="Page-1">
    <mxGraphModel dx="2557" dy="3153" grid="1" gridSize="10" guides="1" tooltips="1" connect="1" arrows="1" fold="1" page="1" pageScale="1" pageWidth="827" pageHeight="1169" math="0" shadow="0">
      <root>
        <mxCell id="WIyWlLk6GJQsqaUBKTNV-0" />
        <mxCell id="WIyWlLk6GJQsqaUBKTNV-1" parent="WIyWlLk6GJQsqaUBKTNV-0" />
        <mxCell id="zkfFHV4jXpPFQw0GAbJ--0" value="Person" style="swimlane;fontStyle=2;align=center;verticalAlign=top;childLayout=stackLayout;horizontal=1;startSize=26;horizontalStack=0;resizeParent=1;resizeLast=0;collapsible=1;marginBottom=0;rounded=0;shadow=0;strokeWidth=1;" parent="WIyWlLk6GJQsqaUBKTNV-1" vertex="1">
          <mxGeometry x="320" y="-1958" width="258.46" height="210" as="geometry">
            <mxRectangle x="230" y="140" width="160" height="26" as="alternateBounds" />
          </mxGeometry>
        </mxCell>
        <mxCell id="zkfFHV4jXpPFQw0GAbJ--1" value=" - String Name" style="text;align=left;verticalAlign=top;spacingLeft=4;spacingRight=4;overflow=hidden;rotatable=0;points=[[0,0.5],[1,0.5]];portConstraint=eastwest;" parent="zkfFHV4jXpPFQw0GAbJ--0" vertex="1">
          <mxGeometry y="26" width="258.46" height="26" as="geometry" />
        </mxCell>
        <mxCell id="zkfFHV4jXpPFQw0GAbJ--2" value=" - int Age" style="text;align=left;verticalAlign=top;spacingLeft=4;spacingRight=4;overflow=hidden;rotatable=0;points=[[0,0.5],[1,0.5]];portConstraint=eastwest;rounded=0;shadow=0;html=0;" parent="zkfFHV4jXpPFQw0GAbJ--0" vertex="1">
          <mxGeometry y="52" width="258.46" height="26" as="geometry" />
        </mxCell>
        <mxCell id="zkfFHV4jXpPFQw0GAbJ--5" value="+ Person()&#xa;+ Person(String Name, int Age)&#xa;+ getName() : String&#xa;+ getAge() : Age&#xa;+ setName(String Name)&#xa;+ setAge(int Age)&#xa;" style="text;align=left;verticalAlign=top;spacingLeft=4;spacingRight=4;overflow=hidden;rotatable=0;points=[[0,0.5],[1,0.5]];portConstraint=eastwest;strokeColor=default;" parent="zkfFHV4jXpPFQw0GAbJ--0" vertex="1">
          <mxGeometry y="78" width="258.46" height="132" as="geometry" />
        </mxCell>
        <mxCell id="6td7utMfPPZDPclQXFH3-5" value="" style="endArrow=block;dashed=1;endFill=0;endSize=12;html=1;rounded=0;exitX=0.459;exitY=0;exitDx=0;exitDy=0;exitPerimeter=0;" parent="zkfFHV4jXpPFQw0GAbJ--0" source="zkfFHV4jXpPFQw0GAbJ--6" edge="1">
          <mxGeometry width="160" relative="1" as="geometry">
            <mxPoint x="150" y="288" as="sourcePoint" />
            <mxPoint x="-80" y="158" as="targetPoint" />
            <Array as="points">
              <mxPoint x="150" y="238" />
              <mxPoint x="-80" y="238" />
            </Array>
          </mxGeometry>
        </mxCell>
        <mxCell id="zkfFHV4jXpPFQw0GAbJ--6" value="Admin" style="swimlane;fontStyle=0;align=center;verticalAlign=top;childLayout=stackLayout;horizontal=1;startSize=26;horizontalStack=0;resizeParent=1;resizeLast=0;collapsible=1;marginBottom=0;rounded=0;shadow=0;strokeWidth=1;" parent="WIyWlLk6GJQsqaUBKTNV-1" vertex="1">
          <mxGeometry x="360" y="-1678" width="240" height="268" as="geometry">
            <mxRectangle x="130" y="380" width="160" height="26" as="alternateBounds" />
          </mxGeometry>
        </mxCell>
        <mxCell id="zkfFHV4jXpPFQw0GAbJ--7" value=" - String Id" style="text;align=left;verticalAlign=top;spacingLeft=4;spacingRight=4;overflow=hidden;rotatable=0;points=[[0,0.5],[1,0.5]];portConstraint=eastwest;" parent="zkfFHV4jXpPFQw0GAbJ--6" vertex="1">
          <mxGeometry y="26" width="240" height="26" as="geometry" />
        </mxCell>
        <mxCell id="zkfFHV4jXpPFQw0GAbJ--8" value=" - String Password" style="text;align=left;verticalAlign=top;spacingLeft=4;spacingRight=4;overflow=hidden;rotatable=0;points=[[0,0.5],[1,0.5]];portConstraint=eastwest;rounded=0;shadow=0;html=0;" parent="zkfFHV4jXpPFQw0GAbJ--6" vertex="1">
          <mxGeometry y="52" width="240" height="26" as="geometry" />
        </mxCell>
        <mxCell id="zkfFHV4jXpPFQw0GAbJ--9" value="" style="line;html=1;strokeWidth=1;align=left;verticalAlign=middle;spacingTop=-1;spacingLeft=3;spacingRight=3;rotatable=0;labelPosition=right;points=[];portConstraint=eastwest;" parent="zkfFHV4jXpPFQw0GAbJ--6" vertex="1">
          <mxGeometry y="78" width="240" height="8" as="geometry" />
        </mxCell>
        <mxCell id="zkfFHV4jXpPFQw0GAbJ--11" value="+ Admin()&#xa;+ Admin(String Name, int Age, String Id,&#xa;String password)&#xa;+ getId() : String&#xa;+ getPassword() : String&#xa;+ addMovie()&#xa;+ deleteMovie()&#xa;+ validateName()  : bool&#xa;+ validateAge()  : bool&#xa;+ validatePassword()  : bool" style="text;align=left;verticalAlign=top;spacingLeft=4;spacingRight=4;overflow=hidden;rotatable=0;points=[[0,0.5],[1,0.5]];portConstraint=eastwest;" parent="zkfFHV4jXpPFQw0GAbJ--6" vertex="1">
          <mxGeometry y="86" width="240" height="164" as="geometry" />
        </mxCell>
        <mxCell id="zkfFHV4jXpPFQw0GAbJ--13" value="Actor" style="swimlane;fontStyle=0;align=center;verticalAlign=top;childLayout=stackLayout;horizontal=1;startSize=26;horizontalStack=0;resizeParent=1;resizeLast=0;collapsible=1;marginBottom=0;rounded=0;shadow=0;strokeWidth=1;strokeColor=default;" parent="WIyWlLk6GJQsqaUBKTNV-1" vertex="1">
          <mxGeometry x="640" y="-1678" width="390" height="170" as="geometry">
            <mxRectangle x="340" y="380" width="170" height="26" as="alternateBounds" />
          </mxGeometry>
        </mxCell>
        <mxCell id="hjFS8RJ8_wdJkzlE3ByT-26" value="&amp;nbsp;- Movie movies:[]&lt;br&gt;&amp;nbsp;- String Nationality" style="text;html=1;align=left;verticalAlign=middle;resizable=0;points=[];autosize=1;strokeColor=none;fillColor=none;" parent="zkfFHV4jXpPFQw0GAbJ--13" vertex="1">
          <mxGeometry y="26" width="390" height="30" as="geometry" />
        </mxCell>
        <mxCell id="hjFS8RJ8_wdJkzlE3ByT-28" value="" style="line;html=1;strokeWidth=1;align=left;verticalAlign=middle;spacingTop=-1;spacingLeft=3;spacingRight=3;rotatable=0;labelPosition=right;points=[];portConstraint=eastwest;" parent="zkfFHV4jXpPFQw0GAbJ--13" vertex="1">
          <mxGeometry y="56" width="390" height="8" as="geometry" />
        </mxCell>
        <mxCell id="hjFS8RJ8_wdJkzlE3ByT-43" value="+ Actor()&lt;br&gt;+ Actor(String Name, int age, Array &amp;lt;Movie&amp;gt; movies, String Nationality)&lt;br&gt;+ getMovies() : Movies&lt;br&gt;+&amp;nbsp;setNationality(String Nationality)&lt;br&gt;+&amp;nbsp;getNationality() : String" style="text;html=1;align=left;verticalAlign=middle;resizable=0;points=[];autosize=1;strokeColor=none;fillColor=none;" parent="zkfFHV4jXpPFQw0GAbJ--13" vertex="1">
          <mxGeometry y="64" width="390" height="80" as="geometry" />
        </mxCell>
        <mxCell id="hjFS8RJ8_wdJkzlE3ByT-1" value="User" style="swimlane;fontStyle=0;align=center;verticalAlign=top;childLayout=stackLayout;horizontal=1;startSize=26;horizontalStack=0;resizeParent=1;resizeLast=0;collapsible=1;marginBottom=0;rounded=0;shadow=0;strokeWidth=1;" parent="WIyWlLk6GJQsqaUBKTNV-1" vertex="1">
          <mxGeometry x="-50" y="-1688" width="390" height="308" as="geometry">
            <mxRectangle x="340" y="380" width="170" height="26" as="alternateBounds" />
          </mxGeometry>
        </mxCell>
        <mxCell id="hjFS8RJ8_wdJkzlE3ByT-2" value="- String email&#xa;- String password&#xa;- String ticket" style="text;align=left;verticalAlign=top;spacingLeft=4;spacingRight=4;overflow=hidden;rotatable=0;points=[[0,0.5],[1,0.5]];portConstraint=eastwest;" parent="hjFS8RJ8_wdJkzlE3ByT-1" vertex="1">
          <mxGeometry y="26" width="390" height="54" as="geometry" />
        </mxCell>
        <mxCell id="hjFS8RJ8_wdJkzlE3ByT-3" value="" style="line;html=1;strokeWidth=1;align=left;verticalAlign=middle;spacingTop=-1;spacingLeft=3;spacingRight=3;rotatable=0;labelPosition=right;points=[];portConstraint=eastwest;" parent="hjFS8RJ8_wdJkzlE3ByT-1" vertex="1">
          <mxGeometry y="80" width="390" height="8" as="geometry" />
        </mxCell>
        <mxCell id="hjFS8RJ8_wdJkzlE3ByT-6" value="+ User()&lt;br&gt;+User(String Name, int age, String email, String password)&lt;br&gt;+User(String Name, int age,String email,String password, Ticket ticket)&lt;br&gt;+&amp;nbsp;getEmail()&amp;nbsp;&amp;nbsp;: String&lt;br&gt;+&amp;nbsp;getPassword()&amp;nbsp;&amp;nbsp;: String&lt;br&gt;+&amp;nbsp;getTicket()&amp;nbsp;&amp;nbsp;: Ticket&lt;br&gt;+ setTicket()&lt;br&gt;+&amp;nbsp;setEmail(String email)&lt;br&gt;+&amp;nbsp;setPassword(String password)&lt;br&gt;+&amp;nbsp;signIn()&lt;br&gt;+&amp;nbsp;signUp()&lt;br&gt;+&amp;nbsp;authenticate()&lt;br&gt;+&amp;nbsp;validateName() : bool&lt;br&gt;+ validateAge()&amp;nbsp;: bool&lt;br&gt;+ validatePassword()&amp;nbsp;: bool" style="text;html=1;align=left;verticalAlign=middle;resizable=0;points=[];autosize=1;strokeColor=none;fillColor=none;" parent="hjFS8RJ8_wdJkzlE3ByT-1" vertex="1">
          <mxGeometry y="88" width="390" height="220" as="geometry" />
        </mxCell>
        <mxCell id="hjFS8RJ8_wdJkzlE3ByT-7" value="Movie" style="swimlane;fontStyle=0;align=center;verticalAlign=top;childLayout=stackLayout;horizontal=1;startSize=26;horizontalStack=0;resizeParent=1;resizeLast=0;collapsible=1;marginBottom=0;rounded=0;shadow=0;strokeWidth=1;" parent="WIyWlLk6GJQsqaUBKTNV-1" vertex="1">
          <mxGeometry x="70" y="-910" width="670" height="574" as="geometry">
            <mxRectangle x="340" y="380" width="170" height="26" as="alternateBounds" />
          </mxGeometry>
        </mxCell>
        <mxCell id="hjFS8RJ8_wdJkzlE3ByT-8" value=" - String movieName&#xa; - Date releaseDate&#xa; - Cast cast:[]&#xa; - String category:[]&#xa; - Double rating&#xa; - String trailer&#xa; - String duration&#xa; - String language&#xa; - Schedule schedule:[]&#xa; - Integer ageRating&#xa; - String overview" style="text;align=left;verticalAlign=top;spacingLeft=4;spacingRight=4;overflow=hidden;rotatable=0;points=[[0,0.5],[1,0.5]];portConstraint=eastwest;" parent="hjFS8RJ8_wdJkzlE3ByT-7" vertex="1">
          <mxGeometry y="26" width="670" height="160" as="geometry" />
        </mxCell>
        <mxCell id="hjFS8RJ8_wdJkzlE3ByT-9" value="" style="line;html=1;strokeWidth=1;align=left;verticalAlign=middle;spacingTop=-1;spacingLeft=3;spacingRight=3;rotatable=0;labelPosition=right;points=[];portConstraint=eastwest;" parent="hjFS8RJ8_wdJkzlE3ByT-7" vertex="1">
          <mxGeometry y="186" width="670" height="8" as="geometry" />
        </mxCell>
        <mxCell id="hjFS8RJ8_wdJkzlE3ByT-10" value="&lt;blockquote style=&quot;margin: 0 0 0 40px ; border: none ; padding: 0px&quot;&gt;&lt;/blockquote&gt;&lt;span&gt;+ Movie()&lt;br&gt;+ Movie(String movieName,Date releaseDate, Array&amp;lt;String&amp;gt;cast, Array&amp;lt;String&amp;gt; category,&lt;br&gt;Double rating, String trailer, String duration, String language, Array&amp;lt;Schedule&amp;gt; schedule, int movieRating, String overview)&lt;br&gt;+ getMovieName()&lt;/span&gt;&lt;br&gt;&lt;blockquote style=&quot;margin: 0 0 0 40px ; border: none ; padding: 0px&quot;&gt;&lt;/blockquote&gt;&lt;span&gt;+ getReleaseDate()&lt;/span&gt;&lt;br&gt;&lt;blockquote style=&quot;margin: 0 0 0 40px ; border: none ; padding: 0px&quot;&gt;&lt;/blockquote&gt;&lt;span&gt;+&amp;nbsp;&lt;/span&gt;&lt;span&gt;getCast()&lt;/span&gt;&lt;br&gt;&lt;blockquote style=&quot;margin: 0 0 0 40px ; border: none ; padding: 0px&quot;&gt;&lt;/blockquote&gt;&lt;span&gt;+&amp;nbsp;&lt;/span&gt;&lt;span&gt;getCategory()&lt;/span&gt;&lt;br&gt;&lt;blockquote style=&quot;margin: 0 0 0 40px ; border: none ; padding: 0px&quot;&gt;&lt;/blockquote&gt;&lt;span&gt;+&amp;nbsp;&lt;/span&gt;&lt;span&gt;getRating()&lt;/span&gt;&lt;br&gt;&lt;blockquote style=&quot;margin: 0 0 0 40px ; border: none ; padding: 0px&quot;&gt;&lt;/blockquote&gt;&lt;span&gt;+&amp;nbsp;&lt;/span&gt;&lt;span&gt;getTrailer()&lt;/span&gt;&lt;br&gt;&lt;blockquote style=&quot;margin: 0 0 0 40px ; border: none ; padding: 0px&quot;&gt;&lt;/blockquote&gt;&lt;span&gt;+&amp;nbsp;&lt;/span&gt;&lt;span&gt;getDuration()&lt;/span&gt;&lt;br&gt;&lt;blockquote style=&quot;margin: 0 0 0 40px ; border: none ; padding: 0px&quot;&gt;&lt;/blockquote&gt;&lt;span&gt;+&amp;nbsp;&lt;/span&gt;&lt;span&gt;getLanguage()&lt;/span&gt;&lt;br&gt;&lt;blockquote style=&quot;margin: 0 0 0 40px ; border: none ; padding: 0px&quot;&gt;&lt;/blockquote&gt;&lt;span&gt;+&amp;nbsp;&lt;/span&gt;&lt;span&gt;getSchedule()&lt;/span&gt;&lt;br&gt;&lt;blockquote style=&quot;margin: 0 0 0 40px ; border: none ; padding: 0px&quot;&gt;&lt;/blockquote&gt;&lt;span&gt;+&amp;nbsp;&lt;/span&gt;&lt;span&gt;getAgeRating()&lt;/span&gt;&lt;br&gt;&lt;blockquote style=&quot;margin: 0 0 0 40px ; border: none ; padding: 0px&quot;&gt;&lt;/blockquote&gt;&lt;span&gt;+&amp;nbsp;&lt;/span&gt;&lt;span&gt;getOverview()&lt;/span&gt;&lt;br&gt;&lt;blockquote style=&quot;margin: 0 0 0 40px ; border: none ; padding: 0px&quot;&gt;&lt;/blockquote&gt;&lt;span&gt;+&amp;nbsp;&lt;/span&gt;&lt;span&gt;toString()&lt;/span&gt;&lt;br&gt;&lt;blockquote style=&quot;margin: 0 0 0 40px ; border: none ; padding: 0px&quot;&gt;&lt;/blockquote&gt;&lt;span&gt;+&amp;nbsp;&lt;/span&gt;&lt;span&gt;setMovieName(String MovieName)&lt;/span&gt;&lt;br&gt;&lt;blockquote style=&quot;margin: 0 0 0 40px ; border: none ; padding: 0px&quot;&gt;&lt;/blockquote&gt;&lt;span&gt;+&amp;nbsp;&lt;/span&gt;&lt;span&gt;setReleaseDate(String releaseDate)&lt;/span&gt;&lt;br&gt;&lt;blockquote style=&quot;margin: 0 0 0 40px ; border: none ; padding: 0px&quot;&gt;&lt;/blockquote&gt;&lt;span&gt;+&amp;nbsp;&lt;/span&gt;&lt;span&gt;addActor(Actor actor)&lt;/span&gt;&lt;br&gt;&lt;blockquote style=&quot;margin: 0 0 0 40px ; border: none ; padding: 0px&quot;&gt;&lt;/blockquote&gt;&lt;span&gt;+&amp;nbsp;&lt;/span&gt;&lt;span&gt;setCategory()&lt;/span&gt;&lt;br&gt;&lt;blockquote style=&quot;margin: 0 0 0 40px ; border: none ; padding: 0px&quot;&gt;&lt;/blockquote&gt;&lt;span&gt;+&amp;nbsp;&lt;/span&gt;&lt;span&gt;setRating()&lt;/span&gt;&lt;br&gt;&lt;blockquote style=&quot;margin: 0 0 0 40px ; border: none ; padding: 0px&quot;&gt;&lt;/blockquote&gt;&lt;span&gt;+&amp;nbsp;&lt;/span&gt;&lt;span&gt;setTrailer()&lt;/span&gt;&lt;br&gt;&lt;blockquote style=&quot;margin: 0 0 0 40px ; border: none ; padding: 0px&quot;&gt;&lt;/blockquote&gt;&lt;span&gt;+&amp;nbsp;&lt;/span&gt;&lt;span&gt;setDuration()&lt;/span&gt;&lt;br&gt;&lt;blockquote style=&quot;margin: 0 0 0 40px ; border: none ; padding: 0px&quot;&gt;&lt;/blockquote&gt;&lt;span&gt;+&amp;nbsp;&lt;/span&gt;&lt;span&gt;setLanguage()&lt;/span&gt;&lt;br&gt;&lt;blockquote style=&quot;margin: 0 0 0 40px ; border: none ; padding: 0px&quot;&gt;&lt;/blockquote&gt;&lt;span&gt;+&amp;nbsp;&lt;/span&gt;&lt;span&gt;setSchedule()&lt;/span&gt;&lt;br&gt;&lt;blockquote style=&quot;margin: 0 0 0 40px ; border: none ; padding: 0px&quot;&gt;&lt;/blockquote&gt;&lt;span&gt;+&amp;nbsp;&lt;/span&gt;&lt;span&gt;setAgeRating()&lt;/span&gt;&lt;br&gt;+&amp;nbsp;setOverview()" style="text;html=1;align=left;verticalAlign=middle;resizable=0;points=[];autosize=1;strokeColor=none;fillColor=none;" parent="hjFS8RJ8_wdJkzlE3ByT-7" vertex="1">
          <mxGeometry y="194" width="670" height="370" as="geometry" />
        </mxCell>
        <mxCell id="hjFS8RJ8_wdJkzlE3ByT-11" value="Ticket" style="swimlane;fontStyle=0;align=center;verticalAlign=top;childLayout=stackLayout;horizontal=1;startSize=26;horizontalStack=0;resizeParent=1;resizeLast=0;collapsible=1;marginBottom=0;rounded=0;shadow=0;strokeWidth=1;" parent="WIyWlLk6GJQsqaUBKTNV-1" vertex="1">
          <mxGeometry x="-380" y="-910" width="390" height="380" as="geometry">
            <mxRectangle x="340" y="380" width="170" height="26" as="alternateBounds" />
          </mxGeometry>
        </mxCell>
        <mxCell id="hjFS8RJ8_wdJkzlE3ByT-12" value="- String seatNo&#xa;- String ticketNo&#xa;- String ticketType&#xa;- Double ticketPrice&#xa;- Movie movie&#xa;- Payment payment" style="text;align=left;verticalAlign=top;spacingLeft=4;spacingRight=4;overflow=hidden;rotatable=0;points=[[0,0.5],[1,0.5]];portConstraint=eastwest;strokeColor=default;" parent="hjFS8RJ8_wdJkzlE3ByT-11" vertex="1">
          <mxGeometry y="26" width="390" height="94" as="geometry" />
        </mxCell>
        <mxCell id="hjFS8RJ8_wdJkzlE3ByT-16" value="&lt;div&gt;&lt;span&gt;&amp;nbsp;+ Ticket()&lt;/span&gt;&lt;br&gt;&lt;/div&gt;&lt;div&gt;&lt;span&gt;&amp;nbsp;+ Ticket(String seatNo, String ticketNo,&lt;/span&gt;&lt;/div&gt;&lt;div&gt;&lt;span&gt;String ticketType, Double ticketPrice, Movie movie, Payment payment)&lt;/span&gt;&lt;/div&gt;&lt;div&gt;&lt;span&gt;&amp;nbsp;+ getSeatNo() : String&lt;/span&gt;&lt;/div&gt;&lt;div&gt;&lt;span&gt;&amp;nbsp;+ getTicketNo() : String&lt;/span&gt;&lt;/div&gt;&lt;div&gt;&lt;span&gt;&amp;nbsp;+ getTicketType() : String&lt;/span&gt;&lt;/div&gt;&lt;div&gt;&lt;span&gt;&amp;nbsp;+ getPrice() : Double&lt;/span&gt;&lt;/div&gt;&lt;div&gt;&lt;span&gt;&amp;nbsp;+ getMovie() : Movie&lt;/span&gt;&lt;/div&gt;&lt;div&gt;&lt;span&gt;&amp;nbsp;+ getPayment() : Payment&lt;br&gt;&amp;nbsp;+ Payment pay()&lt;/span&gt;&lt;/div&gt;&lt;div&gt;&lt;span&gt;&amp;nbsp;+ printTicket()&lt;/span&gt;&lt;/div&gt;&lt;div&gt;&lt;span&gt;&amp;nbsp;+ setSeatNo(int seatNo)&lt;/span&gt;&lt;/div&gt;&lt;div&gt;&lt;span&gt;&amp;nbsp;+ setTicketNo(string ticketNo)&lt;br&gt;&amp;nbsp;+ setTicketType(String ticketType)&lt;/span&gt;&lt;/div&gt;&lt;div&gt;&lt;span&gt;&amp;nbsp;+ setTicketPrice(double ticketPrice)&lt;/span&gt;&lt;/div&gt;&lt;div&gt;&lt;span&gt;&amp;nbsp;+ setMovie(Movie movie)&lt;/span&gt;&lt;/div&gt;&lt;div&gt;&lt;span&gt;&amp;nbsp;+ setPayment(Payment payment)&lt;/span&gt;&lt;/div&gt;" style="text;html=1;align=left;verticalAlign=middle;resizable=0;points=[];autosize=1;strokeColor=none;fillColor=none;" parent="hjFS8RJ8_wdJkzlE3ByT-11" vertex="1">
          <mxGeometry y="120" width="390" height="240" as="geometry" />
        </mxCell>
        <mxCell id="hjFS8RJ8_wdJkzlE3ByT-17" value="CinemaHall" style="swimlane;fontStyle=0;align=center;verticalAlign=top;childLayout=stackLayout;horizontal=1;startSize=26;horizontalStack=0;resizeParent=1;resizeLast=0;collapsible=1;marginBottom=0;rounded=0;shadow=0;strokeWidth=1;" parent="WIyWlLk6GJQsqaUBKTNV-1" vertex="1">
          <mxGeometry x="-620" y="-1230" width="390" height="250" as="geometry">
            <mxRectangle x="340" y="380" width="170" height="26" as="alternateBounds" />
          </mxGeometry>
        </mxCell>
        <mxCell id="hjFS8RJ8_wdJkzlE3ByT-18" value="- String cinemaType&#xa;- int noOfSeats&#xa;- Movie movies:[]&#xa;- int cinemaNo" style="text;align=left;verticalAlign=top;spacingLeft=4;spacingRight=4;overflow=hidden;rotatable=0;points=[[0,0.5],[1,0.5]];portConstraint=eastwest;strokeColor=default;" parent="hjFS8RJ8_wdJkzlE3ByT-17" vertex="1">
          <mxGeometry y="26" width="390" height="64" as="geometry" />
        </mxCell>
        <mxCell id="hjFS8RJ8_wdJkzlE3ByT-19" value="&lt;div&gt;&lt;span&gt;+ CinemaHall()&lt;br&gt;+ CinemaHall(String cinemaType, int noOfSeats, Array&amp;lt;Movie&amp;gt; movie&lt;br&gt;int cinemaNo)&lt;/span&gt;&lt;/div&gt;&lt;div&gt;&lt;span&gt;&amp;nbsp;+ getSeatNo() : String&lt;br&gt;&lt;/span&gt;&amp;nbsp;+&amp;nbsp;&lt;span&gt;getCinemaNo() : int&lt;/span&gt;&lt;/div&gt;&lt;div&gt;&lt;span&gt;&amp;nbsp;+ getMovies() : Array &amp;lt;Movie&amp;gt;&lt;/span&gt;&lt;/div&gt;&lt;div&gt;&lt;span&gt;&amp;nbsp;+ setCinemaType(String cinemaType)&lt;/span&gt;&lt;br&gt;&lt;/div&gt;&lt;div&gt;&lt;span&gt;&amp;nbsp;+ setNoOfSeats(int noOfSeats)&lt;/span&gt;&lt;/div&gt;&lt;div&gt;&lt;span&gt;&amp;nbsp;+ setMovies(Array &amp;lt;Movie&amp;gt;)&lt;br&gt;&amp;nbsp;+ setCinemaNo(int cinemaNo)&lt;/span&gt;&lt;/div&gt;" style="text;html=1;align=left;verticalAlign=middle;resizable=0;points=[];autosize=1;strokeColor=none;fillColor=none;" parent="hjFS8RJ8_wdJkzlE3ByT-17" vertex="1">
          <mxGeometry y="90" width="390" height="150" as="geometry" />
        </mxCell>
        <mxCell id="hjFS8RJ8_wdJkzlE3ByT-23" value="Dashboard" style="swimlane;fontStyle=4;align=center;verticalAlign=top;childLayout=stackLayout;horizontal=1;startSize=26;horizontalStack=0;resizeParent=1;resizeLast=0;collapsible=1;marginBottom=0;rounded=0;shadow=0;strokeWidth=1;" parent="WIyWlLk6GJQsqaUBKTNV-1" vertex="1">
          <mxGeometry x="-498" y="-1770" width="398" height="480" as="geometry">
            <mxRectangle x="340" y="380" width="170" height="26" as="alternateBounds" />
          </mxGeometry>
        </mxCell>
        <mxCell id="hjFS8RJ8_wdJkzlE3ByT-24" value="+ String branchName&#xa;+ Movie allMovies:[]&#xa;+ Admin allAdmins:[]&#xa;+ Ticket allSoldTickets:[]&#xa;+ User allUsers:[]&#xa;+ Double totalBalance&#xa;+ Food food:[]" style="text;align=left;verticalAlign=top;spacingLeft=4;spacingRight=4;overflow=hidden;rotatable=0;points=[[0,0.5],[1,0.5]];portConstraint=eastwest;strokeColor=default;fontSize=18;" parent="hjFS8RJ8_wdJkzlE3ByT-23" vertex="1">
          <mxGeometry y="26" width="398" height="164" as="geometry" />
        </mxCell>
        <mxCell id="hjFS8RJ8_wdJkzlE3ByT-25" value="&lt;font style=&quot;font-size: 18px&quot;&gt;&lt;br&gt;&lt;br&gt;+&amp;nbsp;getBranchName() : String&lt;br&gt;+&amp;nbsp;getAllMovies()&amp;nbsp;&amp;nbsp;: Array &amp;lt;Movies&amp;gt;&lt;br&gt;+&amp;nbsp;getAllAdmins()&amp;nbsp;: Array&amp;lt;Admin&amp;gt;&lt;br&gt;+&amp;nbsp;getAllSoldTickets()&amp;nbsp;: Array&amp;lt;Ticket&amp;gt;&lt;br&gt;+&amp;nbsp;getAllUsers()&amp;nbsp;: Array&amp;lt;User&amp;gt;&lt;br&gt;+&amp;nbsp;getTotalBalance()&amp;nbsp;: Double&lt;br&gt;+&amp;nbsp;getMovie(String movieName) : Movie&lt;br&gt;+&amp;nbsp;getSoldTicket(String ticketNo) : Ticket&lt;br&gt;+&amp;nbsp;getUser(String email) : User&lt;br&gt;+&amp;nbsp;getAllFood() : Array &amp;lt;Food&amp;gt;&lt;br&gt;+&amp;nbsp;addAdmin()&lt;br&gt;+&amp;nbsp;removeAdmin()&lt;/font&gt;" style="text;html=1;align=left;verticalAlign=middle;resizable=0;points=[];autosize=1;strokeColor=none;fillColor=none;" parent="hjFS8RJ8_wdJkzlE3ByT-23" vertex="1">
          <mxGeometry y="190" width="398" height="220" as="geometry" />
        </mxCell>
        <mxCell id="hjFS8RJ8_wdJkzlE3ByT-29" value="Schedule" style="swimlane;fontStyle=0;align=center;verticalAlign=top;childLayout=stackLayout;horizontal=1;startSize=26;horizontalStack=0;resizeParent=1;resizeLast=0;collapsible=1;marginBottom=0;rounded=0;shadow=0;strokeWidth=1;" parent="WIyWlLk6GJQsqaUBKTNV-1" vertex="1">
          <mxGeometry x="-130" y="-1180" width="300" height="170" as="geometry">
            <mxRectangle x="340" y="380" width="170" height="26" as="alternateBounds" />
          </mxGeometry>
        </mxCell>
        <mxCell id="hjFS8RJ8_wdJkzlE3ByT-30" value=" - CinemaHall cinemaHall&#xa; - Date ShowTime" style="text;align=left;verticalAlign=top;spacingLeft=4;spacingRight=4;overflow=hidden;rotatable=0;points=[[0,0.5],[1,0.5]];portConstraint=eastwest;strokeColor=default;" parent="hjFS8RJ8_wdJkzlE3ByT-29" vertex="1">
          <mxGeometry y="26" width="300" height="44" as="geometry" />
        </mxCell>
        <mxCell id="hjFS8RJ8_wdJkzlE3ByT-65" value="+ Schedule()&lt;br&gt;+ Schedule(CinemaHall cinemaHall, Date ShowTime)&lt;br&gt;&amp;nbsp;+ getShowTime()&lt;br&gt;&amp;nbsp;+ setShowTime(Date showTime)&lt;br&gt;&amp;nbsp;+ getCinemaHall()&lt;br&gt;&amp;nbsp;+ setCinemaHall(CinemaHall cinemaHall)" style="text;html=1;align=left;verticalAlign=middle;resizable=0;points=[];autosize=1;strokeColor=none;fillColor=none;fontSize=12;" parent="hjFS8RJ8_wdJkzlE3ByT-29" vertex="1">
          <mxGeometry y="70" width="300" height="90" as="geometry" />
        </mxCell>
        <mxCell id="hjFS8RJ8_wdJkzlE3ByT-32" value="Food" style="swimlane;fontStyle=4;align=center;verticalAlign=top;childLayout=stackLayout;horizontal=1;startSize=26;horizontalStack=0;resizeParent=1;resizeLast=0;collapsible=1;marginBottom=0;rounded=0;shadow=0;strokeWidth=1;" parent="WIyWlLk6GJQsqaUBKTNV-1" vertex="1">
          <mxGeometry x="-750" y="-1460" width="230" height="200" as="geometry">
            <mxRectangle x="340" y="380" width="170" height="26" as="alternateBounds" />
          </mxGeometry>
        </mxCell>
        <mxCell id="hjFS8RJ8_wdJkzlE3ByT-33" value="- String drinks:[]&#xa;- Snack snacks:[]" style="text;align=left;verticalAlign=top;spacingLeft=4;spacingRight=4;overflow=hidden;rotatable=0;points=[[0,0.5],[1,0.5]];portConstraint=eastwest;strokeColor=default;" parent="hjFS8RJ8_wdJkzlE3ByT-32" vertex="1">
          <mxGeometry y="26" width="230" height="54" as="geometry" />
        </mxCell>
        <mxCell id="hjFS8RJ8_wdJkzlE3ByT-64" value="&lt;span style=&quot;font-size: 12px&quot;&gt;+ addDrink(String drink)&lt;/span&gt;&lt;br&gt;&lt;span style=&quot;font-size: 12px&quot;&gt;+ addSnack(String snack)&lt;/span&gt;&lt;br&gt;&lt;span style=&quot;font-size: 12px&quot;&gt;+ getDrink(String drinkName) : Drink&lt;/span&gt;&lt;br&gt;&lt;span style=&quot;font-size: 12px&quot;&gt;+ getSnack(String snackName) : Snack&lt;/span&gt;&lt;br&gt;&lt;font style=&quot;font-size: 12px&quot;&gt;&lt;div&gt;&lt;span&gt;+ searchFood(String foodQuery)&lt;/span&gt;&lt;/div&gt;&lt;/font&gt;" style="text;html=1;align=left;verticalAlign=middle;resizable=0;points=[];autosize=1;strokeColor=none;fillColor=none;fontSize=18;" parent="hjFS8RJ8_wdJkzlE3ByT-32" vertex="1">
          <mxGeometry y="80" width="230" height="120" as="geometry" />
        </mxCell>
        <mxCell id="hjFS8RJ8_wdJkzlE3ByT-40" value="Payment" style="swimlane;fontStyle=0;align=center;verticalAlign=top;childLayout=stackLayout;horizontal=1;startSize=26;horizontalStack=0;resizeParent=1;resizeLast=0;collapsible=1;marginBottom=0;rounded=0;shadow=0;strokeWidth=1;" parent="WIyWlLk6GJQsqaUBKTNV-1" vertex="1">
          <mxGeometry x="-750" y="-910" width="310" height="210" as="geometry">
            <mxRectangle x="340" y="380" width="170" height="26" as="alternateBounds" />
          </mxGeometry>
        </mxCell>
        <mxCell id="hjFS8RJ8_wdJkzlE3ByT-41" value=" - Double amountPaid&#xa; - String paymentMethod" style="text;align=left;verticalAlign=top;spacingLeft=4;spacingRight=4;overflow=hidden;rotatable=0;points=[[0,0.5],[1,0.5]];portConstraint=eastwest;strokeColor=default;" parent="hjFS8RJ8_wdJkzlE3ByT-40" vertex="1">
          <mxGeometry y="26" width="310" height="64" as="geometry" />
        </mxCell>
        <mxCell id="hjFS8RJ8_wdJkzlE3ByT-42" value="&lt;blockquote style=&quot;margin: 0 0 0 40px ; border: none ; padding: 0px&quot;&gt;&lt;/blockquote&gt;&lt;span&gt;+ Payment()&lt;br&gt;+ Payment(Double amountPaid, String paymentMethod)&lt;br&gt;+ setAmountPaid(Double amountPaid)&lt;/span&gt;&lt;br&gt;&lt;blockquote style=&quot;margin: 0 0 0 40px ; border: none ; padding: 0px&quot;&gt;&lt;/blockquote&gt;&lt;span&gt;+&amp;nbsp;&lt;/span&gt;&lt;span&gt;setPaymentMethod(String paymentMethod)&lt;/span&gt;&lt;br&gt;&lt;blockquote style=&quot;margin: 0 0 0 40px ; border: none ; padding: 0px&quot;&gt;&lt;/blockquote&gt;&lt;span&gt;+&amp;nbsp;&lt;/span&gt;&lt;span&gt;getAmountPaid() : Double&lt;/span&gt;&lt;br&gt;&lt;blockquote style=&quot;margin: 0 0 0 40px ; border: none ; padding: 0px&quot;&gt;&lt;/blockquote&gt;&lt;span&gt;+&amp;nbsp;&lt;/span&gt;&lt;span&gt;getPaymentMethod() : String&lt;/span&gt;&lt;br&gt;&lt;blockquote style=&quot;margin: 0 0 0 40px ; border: none ; padding: 0px&quot;&gt;&lt;/blockquote&gt;&lt;span&gt;+&amp;nbsp;&lt;/span&gt;&lt;span&gt;payInCash()&lt;/span&gt;&lt;br&gt;+&amp;nbsp;payByCreditCard()" style="text;html=1;align=left;verticalAlign=middle;resizable=0;points=[];autosize=1;strokeColor=none;fillColor=none;" parent="hjFS8RJ8_wdJkzlE3ByT-40" vertex="1">
          <mxGeometry y="90" width="310" height="120" as="geometry" />
        </mxCell>
        <mxCell id="hjFS8RJ8_wdJkzlE3ByT-46" value="" style="endArrow=diamondThin;endFill=1;endSize=24;html=1;rounded=0;entryX=-0.004;entryY=0.681;entryDx=0;entryDy=0;entryPerimeter=0;" parent="WIyWlLk6GJQsqaUBKTNV-1" target="hjFS8RJ8_wdJkzlE3ByT-12" edge="1">
          <mxGeometry width="160" relative="1" as="geometry">
            <mxPoint x="-440" y="-820.53" as="sourcePoint" />
            <mxPoint x="-280" y="-820.53" as="targetPoint" />
          </mxGeometry>
        </mxCell>
        <mxCell id="hjFS8RJ8_wdJkzlE3ByT-47" value="" style="endArrow=diamondThin;endFill=1;endSize=24;html=1;rounded=0;entryX=0.193;entryY=-0.005;entryDx=0;entryDy=0;entryPerimeter=0;" parent="WIyWlLk6GJQsqaUBKTNV-1" target="hjFS8RJ8_wdJkzlE3ByT-11" edge="1">
          <mxGeometry width="160" relative="1" as="geometry">
            <mxPoint x="-305" y="-980" as="sourcePoint" />
            <mxPoint x="-110" y="-980" as="targetPoint" />
          </mxGeometry>
        </mxCell>
        <mxCell id="hjFS8RJ8_wdJkzlE3ByT-48" value="" style="endArrow=diamondThin;endFill=1;endSize=24;html=1;rounded=0;entryX=0;entryY=0.627;entryDx=0;entryDy=0;entryPerimeter=0;exitX=1.005;exitY=0.027;exitDx=0;exitDy=0;exitPerimeter=0;" parent="WIyWlLk6GJQsqaUBKTNV-1" source="hjFS8RJ8_wdJkzlE3ByT-16" target="hjFS8RJ8_wdJkzlE3ByT-8" edge="1">
          <mxGeometry width="160" relative="1" as="geometry">
            <mxPoint x="-110" y="-804" as="sourcePoint" />
            <mxPoint x="-151.53999999999996" y="-800" as="targetPoint" />
          </mxGeometry>
        </mxCell>
        <mxCell id="hjFS8RJ8_wdJkzlE3ByT-49" value="" style="endArrow=diamondThin;endFill=1;endSize=24;html=1;rounded=0;entryX=0.368;entryY=0;entryDx=0;entryDy=0;entryPerimeter=0;" parent="WIyWlLk6GJQsqaUBKTNV-1" edge="1">
          <mxGeometry width="160" relative="1" as="geometry">
            <mxPoint x="0.08000000000006935" y="-1010" as="sourcePoint" />
            <mxPoint x="-8.526512829121202e-14" y="-910" as="targetPoint" />
          </mxGeometry>
        </mxCell>
        <mxCell id="hjFS8RJ8_wdJkzlE3ByT-50" value="" style="endArrow=diamondThin;endFill=1;endSize=24;html=1;rounded=0;" parent="WIyWlLk6GJQsqaUBKTNV-1" edge="1">
          <mxGeometry width="160" relative="1" as="geometry">
            <mxPoint x="-670" y="-1460" as="sourcePoint" />
            <mxPoint x="-500" y="-1510" as="targetPoint" />
            <Array as="points">
              <mxPoint x="-670" y="-1510" />
              <mxPoint x="-510" y="-1510" />
            </Array>
          </mxGeometry>
        </mxCell>
        <mxCell id="hjFS8RJ8_wdJkzlE3ByT-53" value="" style="endArrow=diamondThin;endFill=1;endSize=24;html=1;rounded=0;exitX=0.49;exitY=-0.002;exitDx=0;exitDy=0;exitPerimeter=0;" parent="WIyWlLk6GJQsqaUBKTNV-1" source="hjFS8RJ8_wdJkzlE3ByT-17" edge="1">
          <mxGeometry width="160" relative="1" as="geometry">
            <mxPoint x="-229.24" y="-1270" as="sourcePoint" />
            <mxPoint x="-429" y="-1290" as="targetPoint" />
          </mxGeometry>
        </mxCell>
        <mxCell id="hjFS8RJ8_wdJkzlE3ByT-55" value="" style="endArrow=diamondThin;endFill=1;endSize=24;html=1;rounded=0;exitX=0.46;exitY=0.001;exitDx=0;exitDy=0;exitPerimeter=0;entryX=0.75;entryY=1;entryDx=0;entryDy=0;" parent="WIyWlLk6GJQsqaUBKTNV-1" source="hjFS8RJ8_wdJkzlE3ByT-11" target="hjFS8RJ8_wdJkzlE3ByT-23" edge="1">
          <mxGeometry width="160" relative="1" as="geometry">
            <mxPoint x="-100" y="-900" as="sourcePoint" />
            <mxPoint x="-210" y="-1340" as="targetPoint" />
          </mxGeometry>
        </mxCell>
        <mxCell id="hjFS8RJ8_wdJkzlE3ByT-57" value="" style="endArrow=diamondThin;endFill=1;endSize=24;html=1;rounded=0;exitX=0.267;exitY=0.002;exitDx=0;exitDy=0;exitPerimeter=0;" parent="WIyWlLk6GJQsqaUBKTNV-1" source="hjFS8RJ8_wdJkzlE3ByT-7" edge="1">
          <mxGeometry width="160" relative="1" as="geometry">
            <mxPoint x="59.99999999999983" y="-902.04" as="sourcePoint" />
            <mxPoint x="-110" y="-1290" as="targetPoint" />
            <Array as="points">
              <mxPoint x="250" y="-1240" />
              <mxPoint x="-110" y="-1240" />
            </Array>
          </mxGeometry>
        </mxCell>
        <mxCell id="hjFS8RJ8_wdJkzlE3ByT-59" value="" style="endArrow=block;endSize=16;endFill=0;html=1;rounded=0;fontSize=18;entryX=0.308;entryY=1.006;entryDx=0;entryDy=0;entryPerimeter=0;" parent="WIyWlLk6GJQsqaUBKTNV-1" target="zkfFHV4jXpPFQw0GAbJ--5" edge="1">
          <mxGeometry x="-0.1052" y="6" width="160" relative="1" as="geometry">
            <mxPoint x="240" y="-1690" as="sourcePoint" />
            <mxPoint x="400" y="-1730" as="targetPoint" />
            <Array as="points">
              <mxPoint x="240" y="-1700" />
              <mxPoint x="280" y="-1700" />
              <mxPoint x="400" y="-1700" />
            </Array>
            <mxPoint as="offset" />
          </mxGeometry>
        </mxCell>
        <mxCell id="hjFS8RJ8_wdJkzlE3ByT-61" value="" style="endArrow=block;endSize=16;endFill=0;html=1;rounded=0;fontSize=18;entryX=0.463;entryY=1.004;entryDx=0;entryDy=0;entryPerimeter=0;" parent="WIyWlLk6GJQsqaUBKTNV-1" target="zkfFHV4jXpPFQw0GAbJ--5" edge="1">
          <mxGeometry width="160" relative="1" as="geometry">
            <mxPoint x="440" y="-1680" as="sourcePoint" />
            <mxPoint x="520" y="-1750" as="targetPoint" />
          </mxGeometry>
        </mxCell>
        <mxCell id="hjFS8RJ8_wdJkzlE3ByT-62" value="" style="endArrow=block;endSize=16;endFill=0;html=1;rounded=0;fontSize=18;entryX=1.005;entryY=0.758;entryDx=0;entryDy=0;entryPerimeter=0;" parent="WIyWlLk6GJQsqaUBKTNV-1" target="zkfFHV4jXpPFQw0GAbJ--5" edge="1">
          <mxGeometry width="160" relative="1" as="geometry">
            <mxPoint x="700" y="-1680" as="sourcePoint" />
            <mxPoint x="640" y="-1750" as="targetPoint" />
            <Array as="points">
              <mxPoint x="700" y="-1780" />
            </Array>
          </mxGeometry>
        </mxCell>
        <mxCell id="hjFS8RJ8_wdJkzlE3ByT-63" value="" style="endArrow=diamondThin;endFill=1;endSize=24;html=1;rounded=0;fontSize=18;entryX=0.533;entryY=-0.008;entryDx=0;entryDy=0;entryPerimeter=0;" parent="WIyWlLk6GJQsqaUBKTNV-1" target="hjFS8RJ8_wdJkzlE3ByT-23" edge="1">
          <mxGeometry width="160" relative="1" as="geometry">
            <mxPoint x="440" y="-1970" as="sourcePoint" />
            <mxPoint x="470" y="-1760" as="targetPoint" />
            <Array as="points">
              <mxPoint x="440" y="-2080" />
              <mxPoint x="-286" y="-2080" />
            </Array>
          </mxGeometry>
        </mxCell>
        <mxCell id="hjFS8RJ8_wdJkzlE3ByT-66" value="&lt;font style=&quot;font-size: 72px&quot;&gt;WhatTheVox&lt;/font&gt;" style="text;html=1;align=center;verticalAlign=middle;resizable=0;points=[];autosize=1;strokeColor=none;fillColor=none;fontSize=12;" parent="WIyWlLk6GJQsqaUBKTNV-1" vertex="1">
          <mxGeometry x="-170" y="-2230" width="430" height="40" as="geometry" />
        </mxCell>
        <mxCell id="6td7utMfPPZDPclQXFH3-0" value="IValidate" style="swimlane;fontStyle=2;align=center;verticalAlign=top;childLayout=stackLayout;horizontal=1;startSize=26;horizontalStack=0;resizeParent=1;resizeLast=0;collapsible=1;marginBottom=0;rounded=0;shadow=0;strokeWidth=1;" parent="WIyWlLk6GJQsqaUBKTNV-1" vertex="1">
          <mxGeometry x="10" y="-1960" width="258.46" height="160" as="geometry">
            <mxRectangle x="230" y="140" width="160" height="26" as="alternateBounds" />
          </mxGeometry>
        </mxCell>
        <mxCell id="6td7utMfPPZDPclQXFH3-3" value="+ validateName()&#xa;+ validateAge()&#xa;+ validatePassword()" style="text;align=left;verticalAlign=top;spacingLeft=4;spacingRight=4;overflow=hidden;rotatable=0;points=[[0,0.5],[1,0.5]];portConstraint=eastwest;strokeColor=default;" parent="6td7utMfPPZDPclQXFH3-0" vertex="1">
          <mxGeometry y="26" width="258.46" height="132" as="geometry" />
        </mxCell>
        <mxCell id="6td7utMfPPZDPclQXFH3-4" value="" style="endArrow=block;dashed=1;endFill=0;endSize=12;html=1;rounded=0;" parent="WIyWlLk6GJQsqaUBKTNV-1" edge="1">
          <mxGeometry width="160" relative="1" as="geometry">
            <mxPoint x="127" y="-1690" as="sourcePoint" />
            <mxPoint x="127" y="-1800" as="targetPoint" />
          </mxGeometry>
        </mxCell>
        <mxCell id="vun5kdWhdMBo4LzflcxZ-0" value="Extends" style="endArrow=block;endSize=16;endFill=0;html=1;rounded=0;" edge="1" parent="WIyWlLk6GJQsqaUBKTNV-1">
          <mxGeometry width="160" relative="1" as="geometry">
            <mxPoint x="640" y="-1920" as="sourcePoint" />
            <mxPoint x="800" y="-1920" as="targetPoint" />
          </mxGeometry>
        </mxCell>
        <mxCell id="vun5kdWhdMBo4LzflcxZ-1" value="" style="endArrow=diamondThin;endFill=1;endSize=24;html=1;rounded=0;" edge="1" parent="WIyWlLk6GJQsqaUBKTNV-1">
          <mxGeometry width="160" relative="1" as="geometry">
            <mxPoint x="640" y="-1890" as="sourcePoint" />
            <mxPoint x="800" y="-1890" as="targetPoint" />
          </mxGeometry>
        </mxCell>
        <mxCell id="vun5kdWhdMBo4LzflcxZ-2" value="Composition" style="edgeLabel;html=1;align=center;verticalAlign=middle;resizable=0;points=[];" vertex="1" connectable="0" parent="vun5kdWhdMBo4LzflcxZ-1">
          <mxGeometry x="0.0684" y="1" relative="1" as="geometry">
            <mxPoint as="offset" />
          </mxGeometry>
        </mxCell>
        <mxCell id="vun5kdWhdMBo4LzflcxZ-3" value="" style="endArrow=block;dashed=1;endFill=0;endSize=12;html=1;rounded=0;" edge="1" parent="WIyWlLk6GJQsqaUBKTNV-1">
          <mxGeometry width="160" relative="1" as="geometry">
            <mxPoint x="650" y="-1853.17" as="sourcePoint" />
            <mxPoint x="810" y="-1853.17" as="targetPoint" />
          </mxGeometry>
        </mxCell>
        <mxCell id="vun5kdWhdMBo4LzflcxZ-4" value="Implements" style="edgeLabel;html=1;align=center;verticalAlign=middle;resizable=0;points=[];" vertex="1" connectable="0" parent="vun5kdWhdMBo4LzflcxZ-3">
          <mxGeometry x="-0.0896" y="-1" relative="1" as="geometry">
            <mxPoint as="offset" />
          </mxGeometry>
        </mxCell>
      </root>
    </mxGraphModel>
  </diagram>
</mxfile>
